<svg xmlns="http://www.w3.org/2000/svg" width="13.825" height="13.812" viewBox="0 0 13.825 13.812"><g transform="translate(0 0.001)"><path d="M134.272,127.051H131.4v-9.19h2.746v1.185a8.838,8.838,0,0,1,.792-.792,3.3,3.3,0,0,1,2.479-.617,2.969,2.969,0,0,1,2.01.881,3.258,3.258,0,0,1,.784,1.825,15.014,15.014,0,0,1,.123,1.735c.015,1.594.007,3.188,0,4.783,0,.052-.007.108-.011.182h-2.846v-.271c0-1.5.007-3-.007-4.5a4.583,4.583,0,0,0-.149-1.122,1.274,1.274,0,0,0-1.416-1.007c-1.037.033-1.457.6-1.583,1.561a7.419,7.419,0,0,0-.048,1c0,1.364,0,2.724,0,4.088Z" transform="translate(-126.517 -113.243)" fill="#fff"/><path d="M8.846,133.4H6v-9.2H8.846Z" transform="translate(-5.777 -119.586)" fill="#fff"/><path d="M3.3,1.663A1.647,1.647,0,0,1,1.654,3.324,1.663,1.663,0,0,1,1.654,0,1.648,1.648,0,0,1,3.3,1.663Z" fill="#fff"/></g></svg>