<svg xmlns="http://www.w3.org/2000/svg" width="17.307" height="12.148" viewBox="0 0 17.307 12.148"><path d="M17.34,5.108a14.49,14.49,0,0,0-.311-3.054A2.034,2.034,0,0,0,15.394.4,14.967,14.967,0,0,0,12.418.1C10.1.047,7.79.047,5.472.086A15.713,15.713,0,0,0,1.93.419,1.894,1.894,0,0,0,.485,1.7,7.222,7.222,0,0,0,.169,3.3a31.527,31.527,0,0,0-.1,3.94,13.742,13.742,0,0,0,.316,3,1.987,1.987,0,0,0,1.462,1.6,8.98,8.98,0,0,0,1.436.247c1.795.169,3.6.091,5.4.1,1.3,0,2.6.017,3.893,0a12.78,12.78,0,0,0,2.894-.311,1.907,1.907,0,0,0,1.458-1.293,7.316,7.316,0,0,0,.32-1.609A33.946,33.946,0,0,0,17.34,5.108ZM6.917,8.386V3.525L11.57,5.973C10.013,6.781,8.482,7.573,6.917,8.386Z" transform="translate(-0.05 -0.058)" fill="#fff"/></svg>