<svg id="Grupo_8587" data-name="Grupo 8587" xmlns="http://www.w3.org/2000/svg" width="103.813" height="34.596" viewBox="0 0 103.813 34.596">
  <path id="Caminho_1955" data-name="Caminho 1955" d="M20.765,8.655a1.263,1.263,0,0,0-.293-.818L14.918,1.013A2.792,2.792,0,0,0,12.757,0h-9.3A3.459,3.459,0,0,0,0,3.455v26.82A4.322,4.322,0,0,0,4.321,34.6H16a1.285,1.285,0,0,0,1.27-1.062l.452-2.954a8.656,8.656,0,1,1,.415-16.041l-.415-3.748,2.258-.977A1.24,1.24,0,0,0,20.765,8.655Zm-7.788-.867A1.733,1.733,0,1,1,14.71,6.055,1.732,1.732,0,0,1,12.977,7.788Z" fill="#fff"/>
  <g id="Grupo_8586" data-name="Grupo 8586" transform="translate(10.389 14.722)">
    <path id="Caminho_1956" data-name="Caminho 1956" d="M91.033,157.013a5.673,5.673,0,0,1-1.99.342c-2.771,0-3.943-1.941-3.943-4.321s1.233-4.334,4.053-4.334a5.535,5.535,0,0,1,1.758.342l-.11,1.6a3.175,3.175,0,0,0-1.416-.4c-1.526,0-2.2,1.025-2.2,2.82,0,1.563.745,2.771,2.3,2.771a3.3,3.3,0,0,0,1.428-.4Z" transform="translate(-85.1 -145.27)" fill="#fff"/>
    <path id="Caminho_1957" data-name="Caminho 1957" d="M145.6,148.7c1.709,0,3.687.891,3.687,4.321,0,3.516-1.978,4.334-3.687,4.334s-3.7-.818-3.7-4.334C141.912,149.6,143.89,148.7,145.6,148.7Zm0,7.227c1.306,0,1.6-1.5,1.6-2.905s-.293-2.881-1.6-2.881-1.611,1.477-1.611,2.881S144.3,155.927,145.6,155.927Z" transform="translate(-134.966 -145.27)" fill="#fff"/>
    <path id="Caminho_1958" data-name="Caminho 1958" d="M214.661,150.2c0-.6-.037-1.062-.061-1.367h2.026c.012.439.061.879.061,1.318h.037a2.344,2.344,0,0,1,2.124-1.453,2.2,2.2,0,0,1,2.124,1.331,2.594,2.594,0,0,1,2.246-1.331c1.819,0,2.417,1.306,2.417,3.345v5.176h-2.026v-5.3c0-1.038-.33-1.563-1.074-1.563-.891,0-1.367.842-1.367,1.77v5.078h-2.014v-5.3c0-1.038-.33-1.563-1.074-1.563-.891,0-1.367.842-1.367,1.77V157.2h-2.026V150.2Z" transform="translate(-198.791 -145.27)" fill="#fff"/>
    <path id="Caminho_1959" data-name="Caminho 1959" d="M325.841,156.719a11.319,11.319,0,0,0,.061,1.379H324.01c-.012-.427-.061-.867-.061-1.282l-.049-.012.012.012a2.441,2.441,0,0,1-2.234,1.416c-1.9,0-2.478-1.416-2.478-3.113v-5.408h2.026v5.029c0,1.282.354,1.819,1.209,1.819,1.074,0,1.379-.977,1.379-2.051V149.7h2.014v7.019Z" transform="translate(-290.622 -146.148)" fill="#fff"/>
    <path id="Caminho_1960" data-name="Caminho 1960" d="M388.161,150.214a11.319,11.319,0,0,0-.061-1.379h1.892c.012.427.061.867.061,1.282h.037a2.459,2.459,0,0,1,2.234-1.416c1.9,0,2.478,1.416,2.478,3.113v5.408h-2.026v-5.029c0-1.282-.33-1.819-1.16-1.819-1.062,0-1.428.891-1.428,1.965v4.883h-2.014v-7.007Z" transform="translate(-351.111 -145.27)" fill="#fff"/>
    <path id="Caminho_1961" data-name="Caminho 1961" d="M459.2,120.6h2.087v1.99H459.2Zm.037,3.565h2.014v8.387h-2.014Z" transform="translate(-413.532 -120.6)" fill="#fff"/>
    <path id="Caminho_1962" data-name="Caminho 1962" d="M495.715,156.024h-.037a2.265,2.265,0,0,1-2.173,1.331c-1.807,0-2.905-1.6-2.905-4.334,0-2.332.867-4.321,2.954-4.321a2.272,2.272,0,0,1,2.234,1.428h.049c0-.574.037-1.062.061-1.306h1.892a10.862,10.862,0,0,0-.061,1.428v10.474h-2.014Zm-1.563-.146c1.111,0,1.563-1.184,1.563-2.82,0-1.575-.4-2.869-1.6-2.869-1.172,0-1.477.977-1.477,2.918C492.626,154.779,493.017,155.878,494.152,155.878Z" transform="translate(-441.099 -145.27)" fill="#fff"/>
    <path id="Caminho_1963" data-name="Caminho 1963" d="M570.841,156.719a11.319,11.319,0,0,0,.061,1.379H569.01c-.012-.427-.061-.867-.061-1.282l-.049-.012.012.012a2.441,2.441,0,0,1-2.234,1.416c-1.9,0-2.478-1.416-2.478-3.113v-5.408h2.014v5.029c0,1.282.354,1.819,1.208,1.819,1.074,0,1.379-.977,1.379-2.051V149.7h2.014v7.019Z" transform="translate(-505.714 -146.148)" fill="#fff"/>
    <path id="Caminho_1964" data-name="Caminho 1964" d="M637.9,156.906a6.221,6.221,0,0,1-2.515.537c-2.71,0-3.882-1.941-3.882-4.2,0-2.515,1.318-4.444,3.455-4.444,1.807,0,3.357,1.062,3.357,4.48v.391h-4.859c0,1.428.574,2.3,2.136,2.3a3.4,3.4,0,0,0,2.2-.647Zm-1.526-4.517c0-1.477-.488-2.234-1.4-2.234-1.062,0-1.5,1.123-1.5,2.234Z" transform="translate(-564.798 -145.357)" fill="#fff"/>
    <path id="Caminho_1965" data-name="Caminho 1965" d="M698.4,173.8h3.76v1.66H698.4Z" transform="translate(-623.531 -167.306)" fill="#fff"/>
    <path id="Caminho_1966" data-name="Caminho 1966" d="M739.786,155.18a5.374,5.374,0,0,0,2.1.549c.732,0,1.306-.183,1.306-.83,0-.33-.159-.635-.891-1.062l-.83-.488c-.842-.5-1.77-1.038-1.77-2.368a2.673,2.673,0,0,1,2.905-2.38,6.848,6.848,0,0,1,2.1.342l-.11,1.563a4.578,4.578,0,0,0-1.77-.378c-.818,0-1.16.305-1.16.818,0,.452.354.7.94,1.074l.989.635c1.038.671,1.563,1.135,1.563,2.112,0,1.55-1.306,2.478-3.125,2.478a6.985,6.985,0,0,1-2.332-.4Z" transform="translate(-659.79 -145.182)" fill="#fff"/>
    <path id="Caminho_1967" data-name="Caminho 1967" d="M801,156.906a6.221,6.221,0,0,1-2.515.537c-2.71,0-3.882-1.941-3.882-4.2,0-2.515,1.318-4.444,3.455-4.444,1.807,0,3.357,1.062,3.357,4.48v.391h-4.859c0,1.428.574,2.3,2.136,2.3a3.374,3.374,0,0,0,2.2-.647Zm-1.526-4.517c0-1.477-.488-2.234-1.4-2.234-1.062,0-1.5,1.123-1.5,2.234Z" transform="translate(-707.988 -145.357)" fill="#fff"/>
  </g>
</svg>
